<svg id="图层_1" data-name="图层 1" xmlns="http://www.w3.org/2000/svg" viewBox="0 0 324.28 224.77"><defs><style>.cls-1{fill:#fff;}</style></defs><path class="cls-1" d="M15,122.71c0-3-.12-5.94,0-8.9.24-4.92,2.8-8,7.29-7.67,5.28.45,7.92-1.57,10.43-6.2,4-7.35,11.16-10.54,19.34-11.67,3.3-.45,6.5-1.64,9.79-2.08,3.75-.51,7.51-.93,11.31-1.14,1.63-.09,3.4-.86,5.21-1,3.78-.31,7.71,0,11.32-.61,8.24-1.31,16.47-.72,24.69-1.14,1.05-.06,1.54-.38,1.74-1.46A114.54,114.54,0,0,1,124,56.16a117,117,0,0,1,14.74-24.95A84.43,84.43,0,0,1,150.19,18.5c2.9-2.51,5.89-4.93,8.95-7.23,3.87-2.91,7.46-3.06,11.16.16,3.4,3,7.24,5.46,10.28,8.78,5.63,6.14,11.38,12.23,15.71,19.44,6.26,10.43,11.57,21.24,14.34,33.2.62,2.67,1.58,5.31,2,8,.2,1.48.79,1.64,2,1.59,2.09-.08,4.19,0,6.29,0a315.5,315.5,0,0,1,32.78,2,230.74,230.74,0,0,1,26.72,4.4,24.55,24.55,0,0,1,12.87,7,25.63,25.63,0,0,1,5.24,7.94c.67,1.72,1.53,2.24,3.25,2.09,1.47-.12,3,.07,4.44.08,4.81,0,7.51,4,7.57,8.22.08,5.76.07,11.53,0,17.29-.07,4.88-2.44,7.17-7.26,7.2-5.33,0-5.35,0-5.81,5.55a104.5,104.5,0,0,1-4.24,23.11c-2.16,6.8-4.81,13.45-9.24,19.21a31,31,0,0,1-15.33,10.92c-14.25,4.71-28.83,5.62-43.61,4.55a41.54,41.54,0,0,1-14.88-3.42,4.19,4.19,0,0,0-4.57.2c-15.69,10.47-33.17,14.05-51.72,12.64a72.58,72.58,0,0,1-26-6.66c-2.75-1.32-5.7-2.42-8.1-4.23-3.42-2.6-6.54-2.73-10.46-1.12-6,2.48-12.59,3.07-19.09,3.05a145.64,145.64,0,0,1-29-2.79C57.06,198.22,50.31,196,45,190.53c-6.48-6.64-10.21-14.82-12.72-23.64a140.36,140.36,0,0,1-4.51-26.13c-.16-1.82-.87-2.13-2.41-2a36.8,36.8,0,0,1-3.93,0c-3.91-.07-6.32-2.39-6.43-6.35C14.9,129.18,15,125.94,15,122.71Zm185.59,31.7a.6.6,0,0,0-.45.71c.12,0,.31,0,.37,0,.17-.22.46-.47,0-.73.35.43.56,0,.81-.14a63.77,63.77,0,0,1,20.76-12.47,116.29,116.29,0,0,1,17.14-5c3.37-.75,4-.24,3.79,3.09A88.63,88.63,0,0,1,240.09,156c-2.41,9.08-6.75,17-12,24.67-2.39,3.5-6.41,5.56-8.13,9.59a36.06,36.06,0,0,0,7.84,1.79,93.74,93.74,0,0,0,24-.13c6.37-.85,12.86-1.25,18.9-4.12a28.53,28.53,0,0,0,14.61-15.61c3.92-9.48,5.47-19.48,6.41-29.61.91-9.83,1.27-19.65,0-29.47-.53-4-1.85-7.76-4.83-10.34a24.78,24.78,0,0,0-9.53-5c-8.67-2.4-17.6-3.4-26.52-4.17s-17.93-1-26.9-1.43c-3.2-.15-6.42,0-9.64,0,1.79,18.41-1.11,38.84-13.43,61.46Zm-78-53.51a92.72,92.72,0,0,0,20,59.49c2.92,3.83,6.75,7,10.35,10.28A78,78,0,0,0,163,179c.67.43,1.2,1,2.05.4,1.8-1.35,4-2.33,5.53-3.82,5.37-5.25,11.12-10.07,15.81-16.07a91.57,91.57,0,0,0,19.83-55.3,109.71,109.71,0,0,0-1.54-20.31,102.9,102.9,0,0,0-11.15-32.52A92.92,92.92,0,0,0,177.3,28.89,86.18,86.18,0,0,0,166,19.15c-.64-.45-1.21-1.26-2.25-.48-2,1.52-4.45,2.6-6.06,4.43-3.75,4.27-8.2,7.83-11.67,12.42-6.65,8.8-12.48,18-16.49,28.33a109.72,109.72,0,0,0-5.21,16.86A79,79,0,0,0,122.55,100.9Zm-13.79,89.32c-1.76-3.07-4.59-5.14-6.67-7.86a77.27,77.27,0,0,1-10-17.26,76.19,76.19,0,0,1-6-25.15c-.17-3,.78-3.79,3.81-3.37a78.69,78.69,0,0,1,22.22,7,50.69,50.69,0,0,1,13.51,8.8c.45.43.86,1,1.89.92-10.37-19.16-15-39.4-13.15-61.17-8.1-.11-16.16.48-24.25.92a290,290,0,0,0-30.3,3.2,52.44,52.44,0,0,0-13.25,3.54c-6.34,2.87-9.38,8.75-9.77,15.39a161.59,161.59,0,0,0,.38,28.08c.31,2.77,0,5.68.68,8.28,1.47,5.85,2.28,11.88,4.47,17.56,2.73,7.06,5.89,13.78,13.2,17.28,2.06,1,3.76,2.78,6.08,3.11,6.77,1,13.44,2.53,20.29,3,5.27.38,10.57.25,15.84.45C101.32,193.09,105.24,191.86,108.76,190.22Zm47.06,12.93c2.15.1,2.5-.36,1.75-2.69a11.29,11.29,0,0,0-.69-1.65,97,97,0,0,0-17.13-23.39c-4.78-4.94-9.55-9.84-15.17-13.94-8.31-6-16.72-11.67-26.93-14.07-2.43-.57-2,.44-1.74,1.85,1,5.63,3.25,10.78,5.6,15.94a68,68,0,0,0,12.21,17.7c3.9,4.23,9,7.4,13.94,10.43C136.29,198.55,145.82,201.14,155.82,203.15Zm21.22-.84c3.34,0,6-1.36,8.77-2.21a66.11,66.11,0,0,0,25.83-14.3,69.62,69.62,0,0,0,10-10.78,72.92,72.92,0,0,0,10.75-23c.43-1.55,1.7-3.88.83-4.57-1.43-1.13-3.56.18-5.3.8-11.53,4.09-21.43,10.83-30.32,19.09-7.9,7.33-15.53,14.93-21.29,24.17a43.86,43.86,0,0,0-4.65,9c-.27.81-.89,1.82-.11,2.37a3.18,3.18,0,0,0,2.49.1C175.17,202.61,176.14,201.69,177,202.31Z"/><path class="cls-1" d="M200.54,154.35c.41.26.12.51,0,.73-.06.07-.25,0-.37,0a.6.6,0,0,1,.45-.71Z"/><path class="cls-1" d="M179,92.81c0-6.82-.07-12.93,0-19a4.38,4.38,0,0,0-1.94-4.14,7.29,7.29,0,0,1-2.56-8.18A7.68,7.68,0,1,1,187.43,69a4.75,4.75,0,0,0-1.52,4.09c0,13.62,0,27.24.05,40.86a5.42,5.42,0,0,1-1.62,4.46c-5.28,4.68-7.14,10.45-6.29,17.45.49,4,.12,8.19.07,12.3,0,2.64-1.13,3.65-4.26,3.52-2-.08-2.7-1.65-2.7-3.5q0-11.66,0-23.31c0-2.07,1.57-3.58,2.79-4.69,4.59-4.16,5.64-9.22,5.13-15.06a6.47,6.47,0,0,0-2.07-4.72c-4.91-4.6-9.62-9.39-14.49-14a5.53,5.53,0,0,1-1.75-4.4c.06-9.17,0-18.34,0-27.51a4.69,4.69,0,0,0-1.51-3.86,7.26,7.26,0,0,1-1.94-7.9,7.2,7.2,0,0,1,6.27-5.18A7,7,0,0,1,170.75,41a6.91,6.91,0,0,1-1.18,8.92,5.24,5.24,0,0,0-2,4.28c.1,8.39.05,16.77,0,25.15a3.71,3.71,0,0,0,1.05,3C172,85.63,175.27,89,179,92.81Z"/><path class="cls-1" d="M156.61,125.28c0-5.94,0-11.35,0-16.75a3.35,3.35,0,0,0-1.33-2.65c-4-3.86-8-7.78-12.08-11.61a4.17,4.17,0,0,1-1.46-3.41c.09-4.45,0-8.9.06-13.35a4.86,4.86,0,0,0-1.59-4.11,7.77,7.77,0,0,1-1.36-9.14c1.54-2.85,3.9-3.6,7.1-3.27s5.71,1.14,6.92,4.34a7.06,7.06,0,0,1-2.45,8.4,4.08,4.08,0,0,0-1.73,3.92,89.15,89.15,0,0,1-.05,10.21,4.9,4.9,0,0,0,2.52,4.76c4.34,3,7.51,7.2,11.44,10.61a3.45,3.45,0,0,1,1,2.86q0,27.63,0,55.26c0,2.91-1.13,4.14-3.51,4.11s-3.47-1.27-3.48-4.18c0-7.34-.06-14.67,0-22,.05-3-.59-5.16-3.27-7.24-4.45-3.46-8.32-7.69-12.34-11.69a4.57,4.57,0,0,0-3.59-1.55,6.93,6.93,0,0,1-6.53-4.38,7.27,7.27,0,0,1,2-8.52c2-1.75,6.07-1.9,8.79-.34,3.22,1.85,4.55,4.3,3.71,7.51-.35,1.31-.24,2.22.82,2.94C149.93,118.54,152.77,122.08,156.61,125.28Z"/><path class="cls-1" d="M189.57,101.18a5.46,5.46,0,0,1,5.84-5.26c2.22,0,5.24,3.06,5.18,5.18a6.21,6.21,0,0,1-5.88,5.55C191.59,106.67,189.53,104.48,189.57,101.18Z"/></svg>